<svg version="1.1" xmlns="http://www.w3.org/2000/svg" xmlns:xlink="http://www.w3.org/1999/xlink" width="712" height="612"><defs/><g><g><path fill="none" stroke="#000000" paint-order="fill stroke markers" d=" M 10 10 L 702 10 L 702 602 L 10 602 L 10 10" stroke-miterlimit="10" stroke-dasharray=""/></g><g><path fill="#ffffff" stroke="none" paint-order="stroke fill markers" d=" M 10 10 L 10 33 L 110.5380859375 33 L 122.0380859375 21.5 L 122.0380859375 10 L 10 10"/></g><g><path fill="none" stroke="#000000" paint-order="fill stroke markers" d=" M 10 10 L 10 33 L 110.5380859375 33 L 122.0380859375 21.5 L 122.0380859375 10 L 10 10 L 10 10" stroke-miterlimit="10" stroke-dasharray=""/></g><g><g><path fill="none" stroke="none"/><text fill="#000000" stroke="none" font-family="Arial" font-size="13px" font-style="normal" font-weight="normal" text-decoration="undefined" x="68.134033203125" y="19.5" text-anchor="middle" dominant-baseline="central" transform="matrix(1 0 0 1 2 2)">BorrowBook</text></g></g><g><g><path fill="none" stroke="none"/><text fill="#000000" stroke="none" font-family="Arial" font-size="13px" font-style="normal" font-weight="bold" text-decoration="undefined" x="19.864990234375" y="19.5" text-anchor="middle" dominant-baseline="central" transform="matrix(1 0 0 1 2 2)">sd</text></g></g><g><rect fill="#C0C0C0" stroke="none" x="183" y="47" width="72.736328125" height="40" transform="matrix(1 0 0 1 2 2)" fill-opacity="0.2"/></g><g><rect fill="#ffffff" stroke="none" x="176" y="40" width="72.736328125" height="40" transform="matrix(1 0 0 1 2 2)"/></g><g><path fill="none" stroke="#000000" paint-order="fill stroke markers" d=" M 178 42 L 250.736328125 42 L 250.736328125 82 L 178 82 L 178 42 Z Z" stroke-miterlimit="10" stroke-dasharray=""/></g><g><g><path fill="none" stroke="none"/><text fill="#000000" stroke="none" font-family="Arial" font-size="13px" font-style="normal" font-weight="bold" text-decoration="undefined" x="212.8681640625" y="53.5" text-anchor="middle" dominant-baseline="central" transform="matrix(1 0 0 1 2 2)">Member</text></g></g><g><path fill="none" stroke="#000000" paint-order="fill stroke markers" d=" M 214.5 83 L 214.5 418" stroke-miterlimit="10" stroke-dasharray="3"/></g><g><rect fill="#C0C0C0" stroke="none" x="471" y="47" width="72.736328125" height="40" transform="matrix(1 0 0 1 2 2)" fill-opacity="0.2"/></g><g><rect fill="#ffffff" stroke="none" x="464" y="40" width="72.736328125" height="40" transform="matrix(1 0 0 1 2 2)"/></g><g><path fill="none" stroke="#000000" paint-order="fill stroke markers" d=" M 466 42 L 538.736328125 42 L 538.736328125 82 L 466 82 L 466 42 Z Z" stroke-miterlimit="10" stroke-dasharray=""/></g><g><g><path fill="none" stroke="none"/><text fill="#000000" stroke="none" font-family="Arial" font-size="13px" font-style="normal" font-weight="bold" text-decoration="undefined" x="500.8681640625" y="53.5" text-anchor="middle" dominant-baseline="central" transform="matrix(1 0 0 1 2 2)">System</text></g></g><g><path fill="none" stroke="#000000" paint-order="fill stroke markers" d=" M 502.5 83 L 502.5 426" stroke-miterlimit="10" stroke-dasharray="3"/></g><g><path fill="none" stroke="#000000" paint-order="fill stroke markers" d=" M 215 117 L 495 117" stroke-miterlimit="10" stroke-dasharray=""/></g><g><path fill="#000000" stroke="none" paint-order="stroke fill markers" d=" M 484.83732514237585 121.20951775601598 L 495 117 L 484.83732514237585 112.79048224398402"/></g><g><path fill="none" stroke="#000000" paint-order="fill stroke markers" d=" M 484.83732514237585 121.20951775601598 L 495 117 L 484.83732514237585 112.79048224398402 L 484.83732514237585 121.20951775601598" stroke-miterlimit="10" stroke-dasharray=""/></g><g><rect fill="#ffffff" stroke="none" x="299" y="99" width="109.83984375" height="13" transform="matrix(1 0 0 1 2 2)"/></g><g><g><path fill="none" stroke="none"/><text fill="#000000" stroke="none" font-family="Arial" font-size="13px" font-style="normal" font-weight="normal" text-decoration="undefined" x="353.919921875" y="105.5" text-anchor="middle" dominant-baseline="central" transform="matrix(1 0 0 1 2 2)">1 : Search for book</text></g></g><g><rect fill="#ffffff" stroke="none" x="493" y="115" width="14" height="28" transform="matrix(1 0 0 1 2 2)"/></g><g><path fill="none" stroke="#000000" paint-order="fill stroke markers" d=" M 495 117 L 509 117 L 509 145 L 495 145 L 495 117 Z Z" stroke-miterlimit="10" stroke-dasharray=""/></g><g><path fill="none" stroke="#000000" paint-order="fill stroke markers" d=" M 215 162 L 495 162" stroke-miterlimit="10" stroke-dasharray=""/></g><g><path fill="#000000" stroke="none" paint-order="stroke fill markers" d=" M 484.83732514237585 166.209517756016 L 495 162 L 484.83732514237585 157.790482243984"/></g><g><path fill="none" stroke="#000000" paint-order="fill stroke markers" d=" M 484.83732514237585 166.209517756016 L 495 162 L 484.83732514237585 157.790482243984 L 484.83732514237585 166.209517756016" stroke-miterlimit="10" stroke-dasharray=""/></g><g><rect fill="#ffffff" stroke="none" x="311" y="144" width="85.998046875" height="13" transform="matrix(1 0 0 1 2 2)"/></g><g><g><path fill="none" stroke="none"/><text fill="#000000" stroke="none" font-family="Arial" font-size="13px" font-style="normal" font-weight="normal" text-decoration="undefined" x="353.9990234375" y="150.5" text-anchor="middle" dominant-baseline="central" transform="matrix(1 0 0 1 2 2)">2 : Select book</text></g></g><g><rect fill="#ffffff" stroke="none" x="493" y="160" width="14" height="28" transform="matrix(1 0 0 1 2 2)"/></g><g><path fill="none" stroke="#000000" paint-order="fill stroke markers" d=" M 495 162 L 509 162 L 509 190 L 495 190 L 495 162 Z Z" stroke-miterlimit="10" stroke-dasharray=""/></g><g><path fill="none" stroke="#000000" paint-order="fill stroke markers" d=" M 503 218 L 533 218 L 533 238 L 509 238" stroke-miterlimit="10" stroke-dasharray=""/></g><g><path fill="#000000" stroke="none" paint-order="stroke fill markers" d=" M 519.1626748576241 233.790482243984 L 509 238 L 519.1626748576241 242.209517756016"/></g><g><path fill="none" stroke="#000000" paint-order="fill stroke markers" d=" M 519.1626748576241 233.790482243984 L 509 238 L 519.1626748576241 242.209517756016 L 519.1626748576241 233.790482243984" stroke-miterlimit="10" stroke-dasharray=""/></g><g><rect fill="#ffffff" stroke="none" x="360" y="217" width="118.498046875" height="13" transform="matrix(1 0 0 1 2 2)"/></g><g><g><path fill="none" stroke="none"/><text fill="#000000" stroke="none" font-family="Arial" font-size="13px" font-style="normal" font-weight="normal" text-decoration="undefined" x="419.2490234375" y="223.5" text-anchor="middle" dominant-baseline="central" transform="matrix(1 0 0 1 2 2)">3 : Check availability</text></g></g><g><rect fill="#ffffff" stroke="none" x="493" y="236" width="14" height="28" transform="matrix(1 0 0 1 2 2)"/></g><g><path fill="none" stroke="#000000" paint-order="fill stroke markers" d=" M 495 238 L 509 238 L 509 266 L 495 266 L 495 238 Z Z" stroke-miterlimit="10" stroke-dasharray=""/></g><g><path fill="none" stroke="#000000" paint-order="fill stroke markers" d=" M 503 282 L 533 282 L 533 302 L 509 302" stroke-miterlimit="10" stroke-dasharray=""/></g><g><path fill="#000000" stroke="none" paint-order="stroke fill markers" d=" M 519.1626748576241 297.790482243984 L 509 302 L 519.1626748576241 306.209517756016"/></g><g><path fill="none" stroke="#000000" paint-order="fill stroke markers" d=" M 519.1626748576241 297.790482243984 L 509 302 L 519.1626748576241 306.209517756016 L 519.1626748576241 297.790482243984" stroke-miterlimit="10" stroke-dasharray=""/></g><g><rect fill="#ffffff" stroke="none" x="352" y="281" width="127.17529296875" height="13" transform="matrix(1 0 0 1 2 2)"/></g><g><g><path fill="none" stroke="none"/><text fill="#000000" stroke="none" font-family="Arial" font-size="13px" font-style="normal" font-weight="normal" text-decoration="undefined" x="415.587646484375" y="287.5" text-anchor="middle" dominant-baseline="central" transform="matrix(1 0 0 1 2 2)">4 : Record transaction</text></g></g><g><rect fill="#ffffff" stroke="none" x="493" y="300" width="14" height="28" transform="matrix(1 0 0 1 2 2)"/></g><g><path fill="none" stroke="#000000" paint-order="fill stroke markers" d=" M 495 302 L 509 302 L 509 330 L 495 330 L 495 302 Z Z" stroke-miterlimit="10" stroke-dasharray=""/></g><g><path fill="none" stroke="#000000" paint-order="fill stroke markers" d=" M 503 354 L 533 354 L 533 374 L 509 374" stroke-miterlimit="10" stroke-dasharray=""/></g><g><path fill="#000000" stroke="none" paint-order="stroke fill markers" d=" M 519.1626748576241 369.790482243984 L 509 374 L 519.1626748576241 378.209517756016"/></g><g><path fill="none" stroke="#000000" paint-order="fill stroke markers" d=" M 519.1626748576241 369.790482243984 L 509 374 L 519.1626748576241 378.209517756016 L 519.1626748576241 369.790482243984" stroke-miterlimit="10" stroke-dasharray=""/></g><g><rect fill="#ffffff" stroke="none" x="352" y="354" width="130.08251953125" height="13" transform="matrix(1 0 0 1 2 2)"/></g><g><g><path fill="none" stroke="none"/><text fill="#000000" stroke="none" font-family="Arial" font-size="13px" font-style="normal" font-weight="normal" text-decoration="undefined" x="417.041259765625" y="360.5" text-anchor="middle" dominant-baseline="central" transform="matrix(1 0 0 1 2 2)">5 : Update book status</text></g></g><g><rect fill="#ffffff" stroke="none" x="493" y="372" width="14" height="28" transform="matrix(1 0 0 1 2 2)"/></g><g><path fill="none" stroke="#000000" paint-order="fill stroke markers" d=" M 495 374 L 509 374 L 509 402 L 495 402 L 495 374 Z Z" stroke-miterlimit="10" stroke-dasharray=""/></g></g></svg>