<svg version="1.1" xmlns="http://www.w3.org/2000/svg" xmlns:xlink="http://www.w3.org/1999/xlink" width="692" height="516"><defs/><g><g><rect fill="#ffffff" stroke="none" x="144" y="112" width="256" height="21" transform="matrix(1 0 0 1 -134 -102)"/></g><g><path fill="none" stroke="#000000" paint-order="fill stroke markers" d=" M 10 10 L 266 10 L 266 31 L 10 31 L 10 10 Z Z" stroke-miterlimit="10" stroke-width="2" stroke-dasharray=""/></g><g><path fill="none" stroke="#000000" paint-order="fill stroke markers" d=" M 10 506 L 10 10 L 266 10 L 266 506" stroke-miterlimit="10" stroke-width="2" stroke-dasharray=""/></g><g><g><path fill="none" stroke="none"/><text fill="#000000" stroke="none" font-family="Arial" font-size="13px" font-style="normal" font-weight="normal" text-decoration="undefined" x="272" y="116" text-anchor="middle" dominant-baseline="text-before-edge" transform="matrix(1 0 0 1 -134 -102)">Member</text></g></g><g><rect fill="#ffffff" stroke="none" x="400" y="112" width="416" height="21" transform="matrix(1 0 0 1 -134 -102)"/></g><g><path fill="none" stroke="#000000" paint-order="fill stroke markers" d=" M 266 10 L 682 10 L 682 31 L 266 31 L 266 10 Z Z" stroke-miterlimit="10" stroke-width="2" stroke-dasharray=""/></g><g><path fill="none" stroke="#000000" paint-order="fill stroke markers" d=" M 266 506 L 266 10 L 682 10 L 682 506" stroke-miterlimit="10" stroke-width="2" stroke-dasharray=""/></g><g><g><path fill="none" stroke="none"/><text fill="#000000" stroke="none" font-family="Arial" font-size="13px" font-style="normal" font-weight="normal" text-decoration="undefined" x="608" y="116" text-anchor="middle" dominant-baseline="text-before-edge" transform="matrix(1 0 0 1 -134 -102)">System</text></g></g><g><path fill="#C0C0C0" stroke="none" paint-order="stroke fill markers" d=" M 135 75 C 135 69.47715199999999 139.477152 65 145 65 C 150.522848 65 155 69.47715199999999 155 75 C 155 80.52284800000001 150.522848 85 145 85 C 139.477152 85 135 80.52284800000001 135 75 Z" fill-opacity="0.2"/></g><g><path fill="#000000" stroke="none" paint-order="stroke fill markers" d=" M 128 68 C 128 62.47715199999999 132.477152 58 138 58 C 143.522848 58 148 62.47715199999999 148 68 C 148 73.52284800000001 143.522848 78 138 78 C 132.477152 78 128 73.52284800000001 128 68 Z"/></g><g><path fill="#C0C0C0" stroke="none" paint-order="stroke fill markers" d=" M 101 113 L 189.96630859375 113 Q 199.96630859375 113 199.96630859375 123 L 199.96630859375 144 Q 199.96630859375 154 189.96630859375 154 L 101 154 Q 91 154 91 144 L 91 123 Q 91 113 101 113 Z" fill-opacity="0.2"/></g><g><path fill="#ffffff" stroke="none" paint-order="stroke fill markers" d=" M 94 106 L 182.96630859375 106 Q 192.96630859375 106 192.96630859375 116 L 192.96630859375 137 Q 192.96630859375 147 182.96630859375 147 L 94 147 Q 84 147 84 137 L 84 116 Q 84 106 94 106 Z"/></g><g><path fill="none" stroke="#000000" paint-order="fill stroke markers" d=" M 94 106 L 182.96630859375 106 Q 192.96630859375 106 192.96630859375 116 L 192.96630859375 137 Q 192.96630859375 147 182.96630859375 147 L 94 147 Q 84 147 84 137 L 84 116 Q 84 106 94 106 Z" stroke-miterlimit="10" stroke-dasharray=""/></g><g><g><path fill="none" stroke="none"/><text fill="#000000" stroke="none" font-family="Arial" font-size="13px" font-style="normal" font-weight="bold" text-decoration="undefined" x="272.983154296875" y="221.5" text-anchor="middle" dominant-baseline="central" transform="matrix(1 0 0 1 -134 -102)">Search for book</text></g></g><g><path fill="#C0C0C0" stroke="none" paint-order="stroke fill markers" d=" M 114 185 L 176.96630859375 185 Q 186.96630859375 185 186.96630859375 195 L 186.96630859375 216 Q 186.96630859375 226 176.96630859375 226 L 114 226 Q 104 226 104 216 L 104 195 Q 104 185 114 185 Z" fill-opacity="0.2"/></g><g><path fill="#ffffff" stroke="none" paint-order="stroke fill markers" d=" M 107 178 L 169.96630859375 178 Q 179.96630859375 178 179.96630859375 188 L 179.96630859375 209 Q 179.96630859375 219 169.96630859375 219 L 107 219 Q 97 219 97 209 L 97 188 Q 97 178 107 178 Z"/></g><g><path fill="none" stroke="#000000" paint-order="fill stroke markers" d=" M 107 178 L 169.96630859375 178 Q 179.96630859375 178 179.96630859375 188 L 179.96630859375 209 Q 179.96630859375 219 169.96630859375 219 L 107 219 Q 97 219 97 209 L 97 188 Q 97 178 107 178 Z" stroke-miterlimit="10" stroke-dasharray=""/></g><g><g><path fill="none" stroke="none"/><text fill="#000000" stroke="none" font-family="Arial" font-size="13px" font-style="normal" font-weight="bold" text-decoration="undefined" x="272.983154296875" y="293.5" text-anchor="middle" dominant-baseline="central" transform="matrix(1 0 0 1 -134 -102)">Select book</text></g></g><g><path fill="#C0C0C0" stroke="none" paint-order="stroke fill markers" d=" M 431 185 L 530.10986328125 185 Q 540.10986328125 185 540.10986328125 195 L 540.10986328125 216 Q 540.10986328125 226 530.10986328125 226 L 431 226 Q 421 226 421 216 L 421 195 Q 421 185 431 185 Z" fill-opacity="0.2"/></g><g><path fill="#ffffff" stroke="none" paint-order="stroke fill markers" d=" M 424 178 L 523.10986328125 178 Q 533.10986328125 178 533.10986328125 188 L 533.10986328125 209 Q 533.10986328125 219 523.10986328125 219 L 424 219 Q 414 219 414 209 L 414 188 Q 414 178 424 178 Z"/></g><g><path fill="none" stroke="#000000" paint-order="fill stroke markers" d=" M 424 178 L 523.10986328125 178 Q 533.10986328125 178 533.10986328125 188 L 533.10986328125 209 Q 533.10986328125 219 523.10986328125 219 L 424 219 Q 414 219 414 209 L 414 188 Q 414 178 424 178 Z" stroke-miterlimit="10" stroke-dasharray=""/></g><g><g><path fill="none" stroke="none"/><text fill="#000000" stroke="none" font-family="Arial" font-size="13px" font-style="normal" font-weight="bold" text-decoration="undefined" x="608.054931640625" y="293.5" text-anchor="middle" dominant-baseline="central" transform="matrix(1 0 0 1 -134 -102)">Check availability</text></g></g><g><path fill="#C0C0C0" stroke="none" paint-order="stroke fill markers" d=" M 302 297 L 410.47265625 297 Q 420.47265625 297 420.47265625 307 L 420.47265625 328 Q 420.47265625 338 410.47265625 338 L 302 338 Q 292 338 292 328 L 292 307 Q 292 297 302 297 Z" fill-opacity="0.2"/></g><g><path fill="#ffffff" stroke="none" paint-order="stroke fill markers" d=" M 295 290 L 403.47265625 290 Q 413.47265625 290 413.47265625 300 L 413.47265625 321 Q 413.47265625 331 403.47265625 331 L 295 331 Q 285 331 285 321 L 285 300 Q 285 290 295 290 Z"/></g><g><path fill="none" stroke="#000000" paint-order="fill stroke markers" d=" M 295 290 L 403.47265625 290 Q 413.47265625 290 413.47265625 300 L 413.47265625 321 Q 413.47265625 331 403.47265625 331 L 295 331 Q 285 331 285 321 L 285 300 Q 285 290 295 290 Z" stroke-miterlimit="10" stroke-dasharray=""/></g><g><g><path fill="none" stroke="none"/><text fill="#000000" stroke="none" font-family="Arial" font-size="13px" font-style="normal" font-weight="bold" text-decoration="undefined" x="483.736328125" y="405.5" text-anchor="middle" dominant-baseline="central" transform="matrix(1 0 0 1 -134 -102)">Record transaction</text></g></g><g><path fill="#C0C0C0" stroke="none" paint-order="stroke fill markers" d=" M 301 369 L 411.62451171875 369 Q 421.62451171875 369 421.62451171875 379 L 421.62451171875 400 Q 421.62451171875 410 411.62451171875 410 L 301 410 Q 291 410 291 400 L 291 379 Q 291 369 301 369 Z" fill-opacity="0.2"/></g><g><path fill="#ffffff" stroke="none" paint-order="stroke fill markers" d=" M 294 362 L 404.62451171875 362 Q 414.62451171875 362 414.62451171875 372 L 414.62451171875 393 Q 414.62451171875 403 404.62451171875 403 L 294 403 Q 284 403 284 393 L 284 372 Q 284 362 294 362 Z"/></g><g><path fill="none" stroke="#000000" paint-order="fill stroke markers" d=" M 294 362 L 404.62451171875 362 Q 414.62451171875 362 414.62451171875 372 L 414.62451171875 393 Q 414.62451171875 403 404.62451171875 403 L 294 403 Q 284 403 284 393 L 284 372 Q 284 362 294 362 Z" stroke-miterlimit="10" stroke-dasharray=""/></g><g><g><path fill="none" stroke="none"/><text fill="#000000" stroke="none" font-family="Arial" font-size="13px" font-style="normal" font-weight="bold" text-decoration="undefined" x="483.812255859375" y="477.5" text-anchor="middle" dominant-baseline="central" transform="matrix(1 0 0 1 -134 -102)">Update book status</text></g></g><g><path fill="#C0C0C0" stroke="none" paint-order="stroke fill markers" d=" M 291 449 L 420.38818359375 449 Q 430.38818359375 449 430.38818359375 459 L 430.38818359375 480 Q 430.38818359375 490 420.38818359375 490 L 291 490 Q 281 490 281 480 L 281 459 Q 281 449 291 449 Z" fill-opacity="0.2"/></g><g><path fill="#ffffff" stroke="none" paint-order="stroke fill markers" d=" M 284 442 L 413.38818359375 442 Q 423.38818359375 442 423.38818359375 452 L 423.38818359375 473 Q 423.38818359375 483 413.38818359375 483 L 284 483 Q 274 483 274 473 L 274 452 Q 274 442 284 442 Z"/></g><g><path fill="none" stroke="#000000" paint-order="fill stroke markers" d=" M 284 442 L 413.38818359375 442 Q 423.38818359375 442 423.38818359375 452 L 423.38818359375 473 Q 423.38818359375 483 413.38818359375 483 L 284 483 Q 274 483 274 473 L 274 452 Q 274 442 284 442 Z" stroke-miterlimit="10" stroke-dasharray=""/></g><g><g><path fill="none" stroke="none"/><text fill="#000000" stroke="none" font-family="Arial" font-size="13px" font-style="normal" font-weight="bold" text-decoration="undefined" x="483.194091796875" y="557.5" text-anchor="middle" dominant-baseline="central" transform="matrix(1 0 0 1 -134 -102)">Confirm borrow action</text></g></g><g><path fill="#C0C0C0" stroke="none" paint-order="stroke fill markers" d=" M 491 329 L 660.92431640625 329 Q 670.92431640625 329 670.92431640625 339 L 670.92431640625 360 Q 670.92431640625 370 660.92431640625 370 L 491 370 Q 481 370 481 360 L 481 339 Q 481 329 491 329 Z" fill-opacity="0.2"/></g><g><path fill="#ffffff" stroke="none" paint-order="stroke fill markers" d=" M 484 322 L 653.92431640625 322 Q 663.92431640625 322 663.92431640625 332 L 663.92431640625 353 Q 663.92431640625 363 653.92431640625 363 L 484 363 Q 474 363 474 353 L 474 332 Q 474 322 484 322 Z"/></g><g><path fill="none" stroke="#000000" paint-order="fill stroke markers" d=" M 484 322 L 653.92431640625 322 Q 663.92431640625 322 663.92431640625 332 L 663.92431640625 353 Q 663.92431640625 363 653.92431640625 363 L 484 363 Q 474 363 474 353 L 474 332 Q 474 322 484 322 Z" stroke-miterlimit="10" stroke-dasharray=""/></g><g><g><path fill="none" stroke="none"/><text fill="#000000" stroke="none" font-family="Arial" font-size="13px" font-style="normal" font-weight="bold" text-decoration="undefined" x="703.462158203125" y="437.5" text-anchor="middle" dominant-baseline="central" transform="matrix(1 0 0 1 -134 -102)">Display unavailable message</text></g></g><g><path fill="none" stroke="#000000" paint-order="fill stroke markers" d=" M 138 79 L 138 105" stroke-miterlimit="10" stroke-dasharray=""/></g><g><path fill="none" stroke="#000000" paint-order="fill stroke markers" d=" M 133.790482243984 94.83732514237585 L 138 105 L 142.209517756016 94.83732514237585" stroke-miterlimit="10" stroke-dasharray=""/></g><g><path fill="none" stroke="#000000" paint-order="fill stroke markers" d=" M 138 148 L 138 177" stroke-miterlimit="10" stroke-dasharray=""/></g><g><path fill="none" stroke="#000000" paint-order="fill stroke markers" d=" M 133.790482243984 166.83732514237585 L 138 177 L 142.209517756016 166.83732514237585" stroke-miterlimit="10" stroke-dasharray=""/></g><g><path fill="none" stroke="#000000" paint-order="fill stroke markers" d=" M 181 198 L 413 198" stroke-miterlimit="10" stroke-dasharray=""/></g><g><path fill="none" stroke="#000000" paint-order="fill stroke markers" d=" M 402.8373251423759 202.209517756016 L 413 198 L 402.8373251423758 193.790482243984" stroke-miterlimit="10" stroke-dasharray=""/></g><g><path fill="none" stroke="#000000" paint-order="fill stroke markers" d=" M 473 220 L 473 257" stroke-miterlimit="10" stroke-dasharray=""/></g><g><path fill="none" stroke="#000000" paint-order="fill stroke markers" d=" M 468.790482243984 246.83732514237585 L 473 257 L 477.209517756016 246.83732514237585" stroke-miterlimit="10" stroke-dasharray=""/></g><g><path fill="none" stroke="#000000" paint-order="fill stroke markers" d=" M 349 404 L 348 441" stroke-miterlimit="10" stroke-dasharray=""/></g><g><path fill="none" stroke="#000000" paint-order="fill stroke markers" d=" M 344.06658547114057 430.72730560446007 L 348 441 L 352.4825477815691 430.95476404528245" stroke-miterlimit="10" stroke-dasharray=""/></g><g><path fill="none" stroke="#000000" paint-order="fill stroke markers" d=" M 349 332 L 349 361" stroke-miterlimit="10" stroke-dasharray=""/></g><g><path fill="none" stroke="#000000" paint-order="fill stroke markers" d=" M 344.790482243984 350.83732514237585 L 349 361 L 353.209517756016 350.83732514237585" stroke-miterlimit="10" stroke-dasharray=""/></g><g><path fill="none" stroke="#000000" paint-order="fill stroke markers" d=" M 461 271 L 410 289" stroke-miterlimit="10" stroke-dasharray=""/></g><g><path fill="none" stroke="#000000" paint-order="fill stroke markers" d=" M 418.18229195892 281.648122804413 L 410 289 L 420.9843163492509 289.5871919103502" stroke-miterlimit="10" stroke-dasharray=""/></g><g><rect fill="#ffffff" stroke="none" x="520" y="359" width="52.5205078125" height="13" transform="matrix(1 0 0 1 -134 -102)"/></g><g><g><path fill="none" stroke="none"/><text fill="#000000" stroke="none" font-family="Arial" font-size="13px" font-style="normal" font-weight="normal" text-decoration="undefined" x="546.26025390625" y="365.5" text-anchor="middle" dominant-baseline="central" transform="matrix(1 0 0 1 -134 -102)">Available</text></g></g><g><path fill="none" stroke="#000000" paint-order="fill stroke markers" d=" M 486 277 L 541 321" stroke-miterlimit="10" stroke-dasharray=""/></g><g><path fill="none" stroke="#000000" paint-order="fill stroke markers" d=" M 530.4346192883949 317.93850846500584 L 541 321 L 535.6939490779461 311.36434622806684" stroke-miterlimit="10" stroke-dasharray=""/></g><g><rect fill="#ffffff" stroke="none" x="632" y="360" width="75.15625" height="13" transform="matrix(1 0 0 1 -134 -102)"/></g><g><g><path fill="none" stroke="none"/><text fill="#000000" stroke="none" font-family="Arial" font-size="13px" font-style="normal" font-weight="normal" text-decoration="undefined" x="669.578125" y="366.5" text-anchor="middle" dominant-baseline="central" transform="matrix(1 0 0 1 -134 -102)">Not available</text></g></g><g><path fill="#C0C0C0" stroke="none" paint-order="stroke fill markers" d=" M 563 470 C 563 462.8202976 568.8202976 457 576 457 C 583.1797024 457 589 462.8202976 589 470 C 589 477.1797024 583.1797024 483 576 483 C 568.8202976 483 563 477.1797024 563 470 Z" fill-opacity="0.2"/></g><g><path fill="none" stroke="#000000" paint-order="fill stroke markers" d=" M 556 463 C 556 455.8202976 561.8202976 450 569 450 C 576.1797024 450 582 455.8202976 582 463 C 582 470.1797024 576.1797024 476 569 476 C 561.8202976 476 556 470.1797024 556 463 Z" stroke-miterlimit="10" stroke-dasharray=""/></g><g><path fill="#000000" stroke="none" paint-order="stroke fill markers" d=" M 561 463 C 561 458.58172160000004 564.5817216 455 569 455 C 573.4182784 455 577 458.58172160000004 577 463 C 577 467.41827839999996 573.4182784 471 569 471 C 564.5817216 471 561 467.41827839999996 561 463 Z"/></g><g><path fill="none" stroke="#000000" paint-order="fill stroke markers" d=" M 568 364 L 569 449" stroke-miterlimit="10" stroke-dasharray=""/></g><g><path fill="none" stroke="#000000" paint-order="fill stroke markers" d=" M 564.6712209224274 438.887548680089 L 569 449 L 573.0896738627179 438.788508057262" stroke-miterlimit="10" stroke-dasharray=""/></g><g><path fill="none" stroke="#000000" paint-order="fill stroke markers" d=" M 424 462 L 555 463" stroke-miterlimit="10" stroke-dasharray=""/></g><g><path fill="none" stroke="#000000" paint-order="fill stroke markers" d=" M 544.805488440289 467.13181970309915 L 555 463 L 544.8697540145421 458.7130294759453" stroke-miterlimit="10" stroke-dasharray=""/></g><g><path fill="#C0C0C0" stroke="none" paint-order="stroke fill markers" d=" M 469 274.5 L 480.5 265 L 492 274.5 L 480.5 284 L 469 274.5" fill-opacity="0.2"/></g><g><path fill="#ffffff" stroke="none" paint-order="stroke fill markers" d=" M 462 267.5 L 473.5 258 L 485 267.5 L 473.5 277 L 462 267.5"/></g><g><path fill="none" stroke="#000000" paint-order="fill stroke markers" d=" M 462 267.5 L 473.5 258 L 485 267.5 L 473.5 277 L 462 267.5 L 462 267.5" stroke-miterlimit="10" stroke-dasharray=""/></g></g></svg>