<svg version="1.1" xmlns="http://www.w3.org/2000/svg" xmlns:xlink="http://www.w3.org/1999/xlink" width="685.2939453125" height="366"><defs/><g><g><rect fill="#C0C0C0" stroke="none" x="223" y="231" width="169.8466796875" height="103" transform="matrix(1 0 0 1 -206 -214)" fill-opacity="0.2"/></g><g><rect fill="#ffffff" stroke="none" x="216" y="224" width="169.8466796875" height="103" transform="matrix(1 0 0 1 -206 -214)"/></g><g><path fill="none" stroke="#000000" paint-order="fill stroke markers" d=" M 10 10 L 179.8466796875 10 L 179.8466796875 113 L 10 113 L 10 10 Z Z" stroke-miterlimit="10" stroke-dasharray=""/></g><g><path fill="none" stroke="#000000" paint-order="fill stroke markers" d=" M 10 35 L 179.8466796875 35" stroke-miterlimit="10" stroke-dasharray=""/></g><g><path fill="none" stroke="#000000" paint-order="fill stroke markers" d=" M 10 103 L 179.8466796875 103" stroke-miterlimit="10" stroke-dasharray=""/></g><g><g><path fill="none" stroke="none"/><text fill="#000000" stroke="none" font-family="Arial" font-size="13px" font-style="normal" font-weight="bold" text-decoration="undefined" x="301.42333984375" y="237.5" text-anchor="middle" dominant-baseline="central" transform="matrix(1 0 0 1 -206 -214)">User</text></g></g><g><g><path fill="none" stroke="none"/><text fill="#000000" stroke="none" font-family="Arial" font-size="13px" font-style="normal" font-weight="normal" text-decoration="undefined" x="221" y="260.5" text-anchor="start" dominant-baseline="central" transform="matrix(1 0 0 1 -206 -214)">+id[1] {id, readOnly, unique}</text></g></g><g><g><path fill="none" stroke="none"/><text fill="#000000" stroke="none" font-family="Arial" font-size="13px" font-style="normal" font-weight="normal" text-decoration="undefined" x="221" y="275.5" text-anchor="start" dominant-baseline="central" transform="matrix(1 0 0 1 -206 -214)">+name[1]</text></g></g><g><g><path fill="none" stroke="none"/><text fill="#000000" stroke="none" font-family="Arial" font-size="13px" font-style="normal" font-weight="normal" text-decoration="undefined" x="221" y="290.5" text-anchor="start" dominant-baseline="central" transform="matrix(1 0 0 1 -206 -214)">+email[1] {unique}</text></g></g><g><g><path fill="none" stroke="none"/><text fill="#000000" stroke="none" font-family="Arial" font-size="13px" font-style="normal" font-weight="normal" text-decoration="undefined" x="221" y="305.5" text-anchor="start" dominant-baseline="central" transform="matrix(1 0 0 1 -206 -214)">+password[1]</text></g></g><g><rect fill="#C0C0C0" stroke="none" x="327" y="375" width="65.62451171875" height="45" transform="matrix(1 0 0 1 -206 -214)" fill-opacity="0.2"/></g><g><rect fill="#ffffff" stroke="none" x="320" y="368" width="65.62451171875" height="45" transform="matrix(1 0 0 1 -206 -214)"/></g><g><path fill="none" stroke="#000000" paint-order="fill stroke markers" d=" M 114 154 L 179.62451171875 154 L 179.62451171875 199 L 114 199 L 114 154 Z Z" stroke-miterlimit="10" stroke-dasharray=""/></g><g><path fill="none" stroke="#000000" paint-order="fill stroke markers" d=" M 114 179 L 179.62451171875 179" stroke-miterlimit="10" stroke-dasharray=""/></g><g><path fill="none" stroke="#000000" paint-order="fill stroke markers" d=" M 114 189 L 179.62451171875 189" stroke-miterlimit="10" stroke-dasharray=""/></g><g><g><path fill="none" stroke="none"/><text fill="#000000" stroke="none" font-family="Arial" font-size="13px" font-style="normal" font-weight="bold" text-decoration="undefined" x="353.312255859375" y="381.5" text-anchor="middle" dominant-baseline="central" transform="matrix(1 0 0 1 -206 -214)">Librarian</text></g></g><g><rect fill="#C0C0C0" stroke="none" x="223" y="375" width="59.84814453125" height="45" transform="matrix(1 0 0 1 -206 -214)" fill-opacity="0.2"/></g><g><rect fill="#ffffff" stroke="none" x="216" y="368" width="59.84814453125" height="45" transform="matrix(1 0 0 1 -206 -214)"/></g><g><path fill="none" stroke="#000000" paint-order="fill stroke markers" d=" M 10 154 L 69.84814453125 154 L 69.84814453125 199 L 10 199 L 10 154 Z Z" stroke-miterlimit="10" stroke-dasharray=""/></g><g><path fill="none" stroke="#000000" paint-order="fill stroke markers" d=" M 10 179 L 69.84814453125 179" stroke-miterlimit="10" stroke-dasharray=""/></g><g><path fill="none" stroke="#000000" paint-order="fill stroke markers" d=" M 10 189 L 69.84814453125 189" stroke-miterlimit="10" stroke-dasharray=""/></g><g><g><path fill="none" stroke="none"/><text fill="#000000" stroke="none" font-family="Arial" font-size="13px" font-style="normal" font-weight="bold" text-decoration="undefined" x="246.424072265625" y="381.5" text-anchor="middle" dominant-baseline="central" transform="matrix(1 0 0 1 -206 -214)">Member</text></g></g><g><rect fill="#C0C0C0" stroke="none" x="651" y="431" width="236.2939453125" height="146" transform="matrix(1 0 0 1 -206 -214)" fill-opacity="0.2"/></g><g><rect fill="#ffffff" stroke="none" x="644" y="424" width="236.2939453125" height="146" transform="matrix(1 0 0 1 -206 -214)"/></g><g><path fill="none" stroke="#000000" paint-order="fill stroke markers" d=" M 438 210 L 674.2939453125 210 L 674.2939453125 356 L 438 356 L 438 210 Z Z" stroke-miterlimit="10" stroke-dasharray=""/></g><g><path fill="none" stroke="#000000" paint-order="fill stroke markers" d=" M 438 235 L 674.2939453125 235" stroke-miterlimit="10" stroke-dasharray=""/></g><g><path fill="none" stroke="#000000" paint-order="fill stroke markers" d=" M 438 318 L 674.2939453125 318" stroke-miterlimit="10" stroke-dasharray=""/></g><g><g><path fill="none" stroke="none"/><text fill="#000000" stroke="none" font-family="Arial" font-size="13px" font-style="normal" font-weight="bold" text-decoration="undefined" x="762.64697265625" y="437.5" text-anchor="middle" dominant-baseline="central" transform="matrix(1 0 0 1 -206 -214)">Book</text></g></g><g><g><path fill="none" stroke="none"/><text fill="#000000" stroke="none" font-family="Arial" font-size="13px" font-style="normal" font-weight="normal" text-decoration="undefined" x="649" y="460.5" text-anchor="start" dominant-baseline="central" transform="matrix(1 0 0 1 -206 -214)">+id[1] {id, readOnly, unique}</text></g></g><g><g><path fill="none" stroke="none"/><text fill="#000000" stroke="none" font-family="Arial" font-size="13px" font-style="normal" font-weight="normal" text-decoration="undefined" x="649" y="475.5" text-anchor="start" dominant-baseline="central" transform="matrix(1 0 0 1 -206 -214)">+isbn[1]</text></g></g><g><g><path fill="none" stroke="none"/><text fill="#000000" stroke="none" font-family="Arial" font-size="13px" font-style="normal" font-weight="normal" text-decoration="undefined" x="649" y="490.5" text-anchor="start" dominant-baseline="central" transform="matrix(1 0 0 1 -206 -214)">+title[1]</text></g></g><g><g><path fill="none" stroke="none"/><text fill="#000000" stroke="none" font-family="Arial" font-size="13px" font-style="normal" font-weight="normal" text-decoration="undefined" x="649" y="505.5" text-anchor="start" dominant-baseline="central" transform="matrix(1 0 0 1 -206 -214)">+author[1..*]</text></g></g><g><g><path fill="none" stroke="none"/><text fill="#000000" stroke="none" font-family="Arial" font-size="13px" font-style="normal" font-weight="normal" text-decoration="undefined" x="649" y="520.5" text-anchor="start" dominant-baseline="central" transform="matrix(1 0 0 1 -206 -214)">+status</text></g></g><g><g><path fill="none" stroke="none"/><text fill="#000000" stroke="none" font-family="Arial" font-size="13px" font-style="normal" font-weight="normal" text-decoration="undefined" x="649" y="543.5" text-anchor="start" dominant-baseline="central" transform="matrix(1 0 0 1 -206 -214)">+setStatus(newStatus: statusValues[1])</text></g></g><g><g><path fill="none" stroke="none"/><text fill="#000000" stroke="none" font-family="Arial" font-size="13px" font-style="normal" font-weight="normal" text-decoration="undefined" x="649" y="558.5" text-anchor="start" dominant-baseline="central" transform="matrix(1 0 0 1 -206 -214)">+getStatus()</text></g></g><g><rect fill="#C0C0C0" stroke="none" x="651" y="239" width="169.8466796875" height="88" transform="matrix(1 0 0 1 -206 -214)" fill-opacity="0.2"/></g><g><rect fill="#ffffff" stroke="none" x="644" y="232" width="169.8466796875" height="88" transform="matrix(1 0 0 1 -206 -214)"/></g><g><path fill="none" stroke="#000000" paint-order="fill stroke markers" d=" M 438 18 L 607.8466796875 18 L 607.8466796875 106 L 438 106 L 438 18 Z Z" stroke-miterlimit="10" stroke-dasharray=""/></g><g><path fill="none" stroke="#000000" paint-order="fill stroke markers" d=" M 438 43 L 607.8466796875 43" stroke-miterlimit="10" stroke-dasharray=""/></g><g><path fill="none" stroke="#000000" paint-order="fill stroke markers" d=" M 438 96 L 607.8466796875 96" stroke-miterlimit="10" stroke-dasharray=""/></g><g><g><path fill="none" stroke="none"/><text fill="#000000" stroke="none" font-family="Arial" font-size="13px" font-style="normal" font-weight="bold" text-decoration="undefined" x="729.42333984375" y="245.5" text-anchor="middle" dominant-baseline="central" transform="matrix(1 0 0 1 -206 -214)">Transaction</text></g></g><g><g><path fill="none" stroke="none"/><text fill="#000000" stroke="none" font-family="Arial" font-size="13px" font-style="normal" font-weight="normal" text-decoration="undefined" x="649" y="268.5" text-anchor="start" dominant-baseline="central" transform="matrix(1 0 0 1 -206 -214)">+id[1] {id, readOnly, unique}</text></g></g><g><g><path fill="none" stroke="none"/><text fill="#000000" stroke="none" font-family="Arial" font-size="13px" font-style="normal" font-weight="normal" text-decoration="undefined" x="649" y="283.5" text-anchor="start" dominant-baseline="central" transform="matrix(1 0 0 1 -206 -214)">+transactionDate[1]</text></g></g><g><g><path fill="none" stroke="none"/><text fill="#000000" stroke="none" font-family="Arial" font-size="13px" font-style="normal" font-weight="normal" text-decoration="undefined" x="649" y="298.5" text-anchor="start" dominant-baseline="central" transform="matrix(1 0 0 1 -206 -214)">+transactionType[1]</text></g></g><g><path fill="none" stroke="#000000" paint-order="fill stroke markers" d=" M 50 153 L 69 114" stroke-miterlimit="10" stroke-dasharray=""/></g><g><path fill="#FFFFFF" stroke="none" paint-order="stroke fill markers" d=" M 67.6667459379525 135.95956360235863 L 69 114 L 52.529490676556634 128.5850033468068"/></g><g><path fill="none" stroke="#000000" paint-order="fill stroke markers" d=" M 67.6667459379525 135.95956360235863 L 69 114 L 52.529490676556634 128.5850033468068 L 67.6667459379525 135.95956360235863" stroke-miterlimit="10" stroke-dasharray=""/></g><g><path fill="none" stroke="#000000" paint-order="fill stroke markers" d=" M 136 153 L 118 114" stroke-miterlimit="10" stroke-dasharray=""/></g><g><path fill="#FFFFFF" stroke="none" paint-order="stroke fill markers" d=" M 134.1616463095366 128.92652633955544 L 118 114 L 118.87336170635257 135.98265769487114"/></g><g><path fill="none" stroke="#000000" paint-order="fill stroke markers" d=" M 134.1616463095366 128.92652633955544 L 118 114 L 118.87336170635257 135.98265769487114 L 134.1616463095366 128.92652633955544" stroke-miterlimit="10" stroke-dasharray=""/></g><g><path fill="none" stroke="#000000" paint-order="fill stroke markers" d=" M 181 61 L 437 62" stroke-miterlimit="10" stroke-dasharray=""/></g><g><rect fill="#ffffff" stroke="none" x="411" y="254" width="209.18701171875" height="13" transform="matrix(1 0 0 1 -206 -214)"/></g><g><g><path fill="none" stroke="none"/><text fill="#000000" stroke="none" font-family="Arial" font-size="13px" font-style="normal" font-weight="normal" text-decoration="undefined" x="515.593505859375" y="260.5" text-anchor="middle" dominant-baseline="central" transform="matrix(1 0 0 1 -206 -214)">+one user makes many transactions</text></g></g><g><rect fill="#ffffff" stroke="none" x="405" y="281" width="7.22998046875" height="13" transform="matrix(1 0 0 1 -206 -214)"/></g><g><g><path fill="none" stroke="none"/><text fill="#000000" stroke="none" font-family="Arial" font-size="13px" font-style="normal" font-weight="normal" text-decoration="undefined" x="408.614990234375" y="287.5" text-anchor="middle" dominant-baseline="central" transform="matrix(1 0 0 1 -206 -214)">1</text></g></g><g><rect fill="#ffffff" stroke="none" x="612" y="282" width="19.5126953125" height="13" transform="matrix(1 0 0 1 -206 -214)"/></g><g><g><path fill="none" stroke="none"/><text fill="#000000" stroke="none" font-family="Arial" font-size="13px" font-style="normal" font-weight="normal" text-decoration="undefined" x="621.75634765625" y="288.5" text-anchor="middle" dominant-baseline="central" transform="matrix(1 0 0 1 -206 -214)">0..*</text></g></g><g><path fill="none" stroke="#000000" paint-order="fill stroke markers" d=" M 529 107 L 545 209" stroke-miterlimit="10" stroke-dasharray=""/></g><g><rect fill="#ffffff" stroke="none" x="464" y="386" width="264.1259765625" height="13" transform="matrix(1 0 0 1 -206 -214)"/></g><g><g><path fill="none" stroke="none"/><text fill="#000000" stroke="none" font-family="Arial" font-size="13px" font-style="normal" font-weight="normal" text-decoration="undefined" x="596.06298828125" y="392.5" text-anchor="middle" dominant-baseline="central" transform="matrix(1 0 0 1 -206 -214)">+one book is the subject of many transactions</text></g></g><g><rect fill="#ffffff" stroke="none" x="717" y="338" width="19.5126953125" height="13" transform="matrix(1 0 0 1 -206 -214)"/></g><g><g><path fill="none" stroke="none"/><text fill="#000000" stroke="none" font-family="Arial" font-size="13px" font-style="normal" font-weight="normal" text-decoration="undefined" x="726.75634765625" y="344.5" text-anchor="middle" dominant-baseline="central" transform="matrix(1 0 0 1 -206 -214)">0..*</text></g></g><g><rect fill="#ffffff" stroke="none" x="725" y="397" width="21.68359375" height="13" transform="matrix(1 0 0 1 -206 -214)"/></g><g><g><path fill="none" stroke="none"/><text fill="#000000" stroke="none" font-family="Arial" font-size="13px" font-style="normal" font-weight="normal" text-decoration="undefined" x="735.841796875" y="403.5" text-anchor="middle" dominant-baseline="central" transform="matrix(1 0 0 1 -206 -214)">1</text></g></g></g></svg>