<svg version="1.1" xmlns="http://www.w3.org/2000/svg" xmlns:xlink="http://www.w3.org/1999/xlink" width="463" height="463"><defs/><g><g><path fill="#ffffff" stroke="none" paint-order="stroke fill markers" d=" M 33.972255859375025 59.849999999999994 C 33.972255859375025 54.96227952000001 37.930058227375014 51 42.812255859375 51 C 47.694453491374986 51 51.652255859374975 54.96227952000001 51.652255859374975 59.849999999999994 C 51.652255859374975 64.73772047999998 47.694453491374986 68.69999999999999 42.812255859375 68.69999999999999 C 37.930058227375014 68.69999999999999 33.972255859375025 64.73772047999998 33.972255859375025 59.849999999999994 Z"/></g><g><path fill="none" stroke="#000000" paint-order="fill stroke markers" d=" M 33.972255859375025 59.849999999999994 C 33.972255859375025 54.96227952000001 37.930058227375014 51 42.812255859375 51 C 47.694453491374986 51 51.652255859374975 54.96227952000001 51.652255859374975 59.849999999999994 C 51.652255859374975 64.73772047999998 47.694453491374986 68.69999999999999 42.812255859375 68.69999999999999 C 37.930058227375014 68.69999999999999 33.972255859375025 64.73772047999998 33.972255859375025 59.849999999999994 Z" stroke-miterlimit="10" stroke-dasharray=""/></g><g><path fill="none" stroke="#000000" paint-order="fill stroke markers" d=" M 42.812255859375 68.69999999999999 L 42.812255859375 86.30000000000001" stroke-miterlimit="10" stroke-dasharray=""/></g><g><path fill="none" stroke="#000000" paint-order="fill stroke markers" d=" M 33.452255859374986 75.30000000000001 L 52.172255859375014 75.30000000000001" stroke-miterlimit="10" stroke-dasharray=""/></g><g><path fill="none" stroke="#000000" paint-order="fill stroke markers" d=" M 42.812255859375 86.30000000000001 L 29.812255859375 104" stroke-miterlimit="10" stroke-dasharray=""/></g><g><path fill="none" stroke="#000000" paint-order="fill stroke markers" d=" M 42.812255859375 86.30000000000001 L 55.812255859375 104" stroke-miterlimit="10" stroke-dasharray=""/></g><g><g><path fill="none" stroke="none"/><text fill="#000000" stroke="none" font-family="Arial" font-size="13px" font-style="normal" font-weight="bold" text-decoration="undefined" x="362.312255859375" y="268.5" text-anchor="middle" dominant-baseline="central" transform="matrix(1 0 0 1 -319 -150)">Librarian</text></g></g><g><path fill="#ffffff" stroke="none" paint-order="stroke fill markers" d=" M 34.084072265625025 307.85 C 34.084072265625025 302.96227952000004 38.041874633625014 299 42.924072265625 299 C 47.806269897624986 299 51.764072265624975 302.96227952000004 51.764072265624975 307.85 C 51.764072265624975 312.73772048 47.806269897624986 316.7 42.924072265625 316.7 C 38.041874633625014 316.7 34.084072265625025 312.73772048 34.084072265625025 307.85 Z"/></g><g><path fill="none" stroke="#000000" paint-order="fill stroke markers" d=" M 34.084072265625025 307.85 C 34.084072265625025 302.96227952000004 38.041874633625014 299 42.924072265625 299 C 47.806269897624986 299 51.764072265624975 302.96227952000004 51.764072265624975 307.85 C 51.764072265624975 312.73772048 47.806269897624986 316.7 42.924072265625 316.7 C 38.041874633625014 316.7 34.084072265625025 312.73772048 34.084072265625025 307.85 Z" stroke-miterlimit="10" stroke-dasharray=""/></g><g><path fill="none" stroke="#000000" paint-order="fill stroke markers" d=" M 42.924072265625 316.7 L 42.924072265625 334.3" stroke-miterlimit="10" stroke-dasharray=""/></g><g><path fill="none" stroke="#000000" paint-order="fill stroke markers" d=" M 33.564072265624986 323.3 L 52.284072265625014 323.3" stroke-miterlimit="10" stroke-dasharray=""/></g><g><path fill="none" stroke="#000000" paint-order="fill stroke markers" d=" M 42.924072265625 334.3 L 29.924072265625 352" stroke-miterlimit="10" stroke-dasharray=""/></g><g><path fill="none" stroke="#000000" paint-order="fill stroke markers" d=" M 42.924072265625 334.3 L 55.924072265625 352" stroke-miterlimit="10" stroke-dasharray=""/></g><g><g><path fill="none" stroke="none"/><text fill="#000000" stroke="none" font-family="Arial" font-size="13px" font-style="normal" font-weight="bold" text-decoration="undefined" x="362.424072265625" y="516.5" text-anchor="middle" dominant-baseline="central" transform="matrix(1 0 0 1 -319 -150)">Member</text></g></g><g><path fill="#C0C0C0" stroke="none" paint-order="stroke fill markers" d=" M 309 234.5 C 309 224.835016 331.83347519999995 217 360 217 C 388.16652480000005 217 411 224.835016 411 234.5 C 411 244.164984 388.16652480000005 252 360 252 C 331.83347519999995 252 309 244.164984 309 234.5 Z" fill-opacity="0.2"/></g><g><path fill="#ffffff" stroke="none" paint-order="stroke fill markers" d=" M 302 227.5 C 302 217.835016 324.83347519999995 210 353 210 C 381.16652480000005 210 404 217.835016 404 227.5 C 404 237.164984 381.16652480000005 245 353 245 C 324.83347519999995 245 302 237.164984 302 227.5 Z"/></g><g><path fill="none" stroke="#000000" paint-order="fill stroke markers" d=" M 302 227.5 C 302 217.835016 324.83347519999995 210 353 210 C 381.16652480000005 210 404 217.835016 404 227.5 C 404 237.164984 381.16652480000005 245 353 245 C 324.83347519999995 245 302 237.164984 302 227.5 Z" stroke-miterlimit="10" stroke-dasharray=""/></g><g><g><path fill="none" stroke="none"/><text fill="#000000" stroke="none" font-family="Arial" font-size="13px" font-style="normal" font-weight="bold" text-decoration="undefined" x="672" y="378.5" text-anchor="middle" dominant-baseline="central" transform="matrix(1 0 0 1 -319 -150)">Login</text></g></g><g><path fill="#C0C0C0" stroke="none" paint-order="stroke fill markers" d=" M 309 34.5 C 309 24.835015999999996 331.83347519999995 17 360 17 C 388.16652480000005 17 411 24.835015999999996 411 34.5 C 411 44.164984000000004 388.16652480000005 52 360 52 C 331.83347519999995 52 309 44.164984000000004 309 34.5 Z" fill-opacity="0.2"/></g><g><path fill="#ffffff" stroke="none" paint-order="stroke fill markers" d=" M 302 27.5 C 302 17.835015999999996 324.83347519999995 10 353 10 C 381.16652480000005 10 404 17.835015999999996 404 27.5 C 404 37.164984000000004 381.16652480000005 45 353 45 C 324.83347519999995 45 302 37.164984000000004 302 27.5 Z"/></g><g><path fill="none" stroke="#000000" paint-order="fill stroke markers" d=" M 302 27.5 C 302 17.835015999999996 324.83347519999995 10 353 10 C 381.16652480000005 10 404 17.835015999999996 404 27.5 C 404 37.164984000000004 381.16652480000005 45 353 45 C 324.83347519999995 45 302 37.164984000000004 302 27.5 Z" stroke-miterlimit="10" stroke-dasharray=""/></g><g><g><path fill="none" stroke="none"/><text fill="#000000" stroke="none" font-family="Arial" font-size="13px" font-style="normal" font-weight="bold" text-decoration="undefined" x="672" y="178.5" text-anchor="middle" dominant-baseline="central" transform="matrix(1 0 0 1 -319 -150)">Add book</text></g></g><g><path fill="#C0C0C0" stroke="none" paint-order="stroke fill markers" d=" M 293 98.5 C 293 88.835016 322.9969184 81 360 81 C 397.0030816 81 427 88.835016 427 98.5 C 427 108.164984 397.0030816 116 360 116 C 322.9969184 116 293 108.164984 293 98.5 Z" fill-opacity="0.2"/></g><g><path fill="#ffffff" stroke="none" paint-order="stroke fill markers" d=" M 286 91.5 C 286 81.835016 315.9969184 74 353 74 C 390.0030816 74 420 81.835016 420 91.5 C 420 101.164984 390.0030816 109 353 109 C 315.9969184 109 286 101.164984 286 91.5 Z"/></g><g><path fill="none" stroke="#000000" paint-order="fill stroke markers" d=" M 286 91.5 C 286 81.835016 315.9969184 74 353 74 C 390.0030816 74 420 81.835016 420 91.5 C 420 101.164984 390.0030816 109 353 109 C 315.9969184 109 286 101.164984 286 91.5 Z" stroke-miterlimit="10" stroke-dasharray=""/></g><g><g><path fill="none" stroke="none"/><text fill="#000000" stroke="none" font-family="Arial" font-size="13px" font-style="normal" font-weight="bold" text-decoration="undefined" x="672" y="242.5" text-anchor="middle" dominant-baseline="central" transform="matrix(1 0 0 1 -319 -150)">Remove book</text></g></g><g><path fill="#C0C0C0" stroke="none" paint-order="stroke fill markers" d=" M 260 162.5 C 260 152.835016 304.77152 145 360 145 C 415.22848 145 460 152.835016 460 162.5 C 460 172.164984 415.22848 180 360 180 C 304.77152 180 260 172.164984 260 162.5 Z" fill-opacity="0.2"/></g><g><path fill="#ffffff" stroke="none" paint-order="stroke fill markers" d=" M 253 155.5 C 253 145.835016 297.77152 138 353 138 C 408.22848 138 453 145.835016 453 155.5 C 453 165.164984 408.22848 173 353 173 C 297.77152 173 253 165.164984 253 155.5 Z"/></g><g><path fill="none" stroke="#000000" paint-order="fill stroke markers" d=" M 253 155.5 C 253 145.835016 297.77152 138 353 138 C 408.22848 138 453 145.835016 453 155.5 C 453 165.164984 408.22848 173 353 173 C 297.77152 173 253 165.164984 253 155.5 Z" stroke-miterlimit="10" stroke-dasharray=""/></g><g><g><path fill="none" stroke="none"/><text fill="#000000" stroke="none" font-family="Arial" font-size="13px" font-style="normal" font-weight="bold" text-decoration="undefined" x="672" y="306.5" text-anchor="middle" dominant-baseline="central" transform="matrix(1 0 0 1 -319 -150)">View member activity</text></g></g><g><path fill="#C0C0C0" stroke="none" paint-order="stroke fill markers" d=" M 298 306.5 C 298 296.835016 325.75834239999995 289 360 289 C 394.24165760000005 289 422 296.835016 422 306.5 C 422 316.164984 394.24165760000005 324 360 324 C 325.75834239999995 324 298 316.164984 298 306.5 Z" fill-opacity="0.2"/></g><g><path fill="#ffffff" stroke="none" paint-order="stroke fill markers" d=" M 291 299.5 C 291 289.835016 318.75834239999995 282 353 282 C 387.24165760000005 282 415 289.835016 415 299.5 C 415 309.164984 387.24165760000005 317 353 317 C 318.75834239999995 317 291 309.164984 291 299.5 Z"/></g><g><path fill="none" stroke="#000000" paint-order="fill stroke markers" d=" M 291 299.5 C 291 289.835016 318.75834239999995 282 353 282 C 387.24165760000005 282 415 289.835016 415 299.5 C 415 309.164984 387.24165760000005 317 353 317 C 318.75834239999995 317 291 309.164984 291 299.5 Z" stroke-miterlimit="10" stroke-dasharray=""/></g><g><g><path fill="none" stroke="none"/><text fill="#000000" stroke="none" font-family="Arial" font-size="13px" font-style="normal" font-weight="bold" text-decoration="undefined" x="672" y="450.5" text-anchor="middle" dominant-baseline="central" transform="matrix(1 0 0 1 -319 -150)">Search book</text></g></g><g><path fill="#C0C0C0" stroke="none" paint-order="stroke fill markers" d=" M 296 378.5 C 296 368.835016 324.4299152 361 359.5 361 C 394.5700848 361 423 368.835016 423 378.5 C 423 388.164984 394.5700848 396 359.5 396 C 324.4299152 396 296 388.164984 296 378.5 Z" fill-opacity="0.2"/></g><g><path fill="#ffffff" stroke="none" paint-order="stroke fill markers" d=" M 289 371.5 C 289 361.835016 317.4299152 354 352.5 354 C 387.5700848 354 416 361.835016 416 371.5 C 416 381.164984 387.5700848 389 352.5 389 C 317.4299152 389 289 381.164984 289 371.5 Z"/></g><g><path fill="none" stroke="#000000" paint-order="fill stroke markers" d=" M 289 371.5 C 289 361.835016 317.4299152 354 352.5 354 C 387.5700848 354 416 361.835016 416 371.5 C 416 381.164984 387.5700848 389 352.5 389 C 317.4299152 389 289 381.164984 289 371.5 Z" stroke-miterlimit="10" stroke-dasharray=""/></g><g><g><path fill="none" stroke="none"/><text fill="#000000" stroke="none" font-family="Arial" font-size="13px" font-style="normal" font-weight="bold" text-decoration="undefined" x="671.5" y="522.5" text-anchor="middle" dominant-baseline="central" transform="matrix(1 0 0 1 -319 -150)">Borrow book</text></g></g><g><path fill="#C0C0C0" stroke="none" paint-order="stroke fill markers" d=" M 299 442.5 C 299 432.835016 326.3106272 425 360 425 C 393.6893728 425 421 432.835016 421 442.5 C 421 452.164984 393.6893728 460 360 460 C 326.3106272 460 299 452.164984 299 442.5 Z" fill-opacity="0.2"/></g><g><path fill="#ffffff" stroke="none" paint-order="stroke fill markers" d=" M 292 435.5 C 292 425.835016 319.3106272 418 353 418 C 386.6893728 418 414 425.835016 414 435.5 C 414 445.164984 386.6893728 453 353 453 C 319.3106272 453 292 445.164984 292 435.5 Z"/></g><g><path fill="none" stroke="#000000" paint-order="fill stroke markers" d=" M 292 435.5 C 292 425.835016 319.3106272 418 353 418 C 386.6893728 418 414 425.835016 414 435.5 C 414 445.164984 386.6893728 453 353 453 C 319.3106272 453 292 445.164984 292 435.5 Z" stroke-miterlimit="10" stroke-dasharray=""/></g><g><g><path fill="none" stroke="none"/><text fill="#000000" stroke="none" font-family="Arial" font-size="13px" font-style="normal" font-weight="bold" text-decoration="undefined" x="672" y="586.5" text-anchor="middle" dominant-baseline="central" transform="matrix(1 0 0 1 -319 -150)">Return book</text></g></g><g><path fill="none" stroke="#000000" paint-order="fill stroke markers" d=" M 77 83 L 301 38" stroke-miterlimit="10" stroke-dasharray=""/></g><g><path fill="none" stroke="#000000" paint-order="fill stroke markers" d=" M 77 90 L 285 91" stroke-miterlimit="10" stroke-dasharray=""/></g><g><path fill="none" stroke="#000000" paint-order="fill stroke markers" d=" M 77 97 L 267 137" stroke-miterlimit="10" stroke-dasharray=""/></g><g><path fill="none" stroke="#000000" paint-order="fill stroke markers" d=" M 77 105 L 312 209" stroke-miterlimit="10" stroke-dasharray=""/></g><g><path fill="none" stroke="#000000" paint-order="fill stroke markers" d=" M 74 327 L 301 246" stroke-miterlimit="10" stroke-dasharray=""/></g><g><path fill="none" stroke="#000000" paint-order="fill stroke markers" d=" M 74 334 L 290 307" stroke-miterlimit="10" stroke-dasharray=""/></g><g><path fill="none" stroke="#000000" paint-order="fill stroke markers" d=" M 74 341 L 288 364" stroke-miterlimit="10" stroke-dasharray=""/></g><g><path fill="none" stroke="#000000" paint-order="fill stroke markers" d=" M 74 348 L 295 417" stroke-miterlimit="10" stroke-dasharray=""/></g></g></svg>